<svg xmlns="http://www.w3.org/2000/svg" width="438" height="360" viewBox="0 0 438 360">
<g>
<path d="M 227.12 334.25 C224.14,337.41 221.43,339.99 221.10,339.99 C220.77,339.98 219.69,337.39 218.71,334.24 C217.72,331.08 215.27,324.31 213.27,319.19 C210.11,311.14 209.75,309.39 210.57,306.19 C211.09,304.16 211.25,300.48 210.91,298.00 C210.57,295.52 209.27,285.48 208.03,275.68 L 205.76 257.86 L 208.63 254.82 C210.21,253.14 214.50,249.79 218.17,247.35 C221.83,244.92 227.91,240.12 231.67,236.69 C237.93,230.97 253.04,218.44 261.72,211.76 C263.67,210.25 267.42,207.01 270.04,204.56 C272.67,202.10 277.32,198.49 280.39,196.52 C283.46,194.56 288.79,190.35 292.24,187.16 C295.68,183.97 299.44,180.72 300.59,179.93 C301.74,179.14 305.86,175.65 309.75,172.17 C323.72,159.66 336.74,151.67 326.74,161.75 C308.30,180.33 303.65,184.75 297.00,190.01 C292.88,193.27 288.83,196.65 288.00,197.50 C283.81,201.86 250.12,235.44 240.73,244.61 C234.81,250.39 229.29,256.16 228.45,257.43 C227.02,259.62 227.13,259.90 230.63,262.98 C232.66,264.76 239.99,268.89 246.91,272.14 C263.80,280.08 268.32,282.47 268.71,283.64 C268.89,284.18 267.35,286.84 265.29,289.56 C260.27,296.19 233.90,327.06 227.12,334.25 ZM 134.64 352.00 C127.94,353.36 105.81,354.48 104.84,353.51 C104.51,353.18 101.41,352.59 97.95,352.20 C94.36,351.80 91.49,350.96 91.25,350.25 C91.00,349.49 91.75,349.00 93.17,349.00 C97.93,348.99 115.79,345.00 124.50,341.99 L 125.24 341.73 C133.96,338.72 136.97,337.68 137.88,338.63 C138.36,339.14 138.26,340.20 138.11,341.81 C138.10,341.90 138.09,341.99 138.08,342.07 C138.00,342.94 139.07,344.17 140.46,344.80 C142.68,345.81 142.85,346.24 141.88,348.35 C141.02,350.26 139.51,351.02 134.64,352.00 Z" fill="rgb(32,81,153)"/>
<path d="M 230.40 262.78 C227.12,259.89 227.05,259.57 228.45,257.43 C229.29,256.16 234.81,250.39 240.73,244.61 C250.12,235.44 283.81,201.86 288.00,197.50 C288.83,196.65 292.88,193.27 297.00,190.01 C303.65,184.75 308.30,180.33 326.74,161.75 C336.74,151.67 323.72,159.66 309.75,172.17 C305.86,175.65 301.74,179.14 300.59,179.93 C299.44,180.72 295.68,183.97 292.24,187.16 C288.79,190.35 283.46,194.56 280.39,196.52 C277.32,198.49 272.67,202.10 270.04,204.56 C267.42,207.01 263.67,210.25 261.72,211.76 C253.04,218.44 237.93,230.97 231.67,236.69 C227.91,240.12 221.83,244.92 218.17,247.35 C214.50,249.79 210.21,253.14 208.63,254.82 L 205.76 257.86 L 208.03 275.68 C209.27,285.48 210.57,295.52 210.91,298.00 C211.25,300.48 211.09,304.16 210.57,306.19 C209.83,309.06 210.05,310.77 212.38,316.90 C212.01,315.95 211.64,315.02 211.28,314.10 C208.32,306.62 205.20,298.48 204.35,296.00 C203.51,293.52 201.00,287.45 198.78,282.50 C196.57,277.55 192.80,267.49 190.42,260.15 C188.03,252.81 185.55,246.16 184.90,245.38 C184.86,245.33 184.82,245.29 184.79,245.24 C184.35,244.71 184.06,244.37 184.08,244.04 C184.11,243.41 185.29,242.85 188.68,241.14 C190.98,239.98 193.15,238.56 193.50,237.99 C193.86,237.42 198.72,233.96 204.32,230.29 C209.92,226.62 217.25,221.35 220.61,218.56 C227.99,212.44 241.78,202.33 252.04,195.51 C259.75,190.38 262.40,188.47 287.83,169.64 C295.90,163.66 304.75,157.26 307.50,155.40 C310.25,153.54 319.02,147.31 327.00,141.55 C334.98,135.80 348.48,126.38 357.00,120.63 C365.52,114.88 375.44,108.12 379.03,105.61 C386.45,100.43 390.49,99.34 390.52,102.50 C390.54,103.76 386.65,108.20 380.02,114.48 C374.24,119.97 363.87,129.87 356.99,136.48 C341.73,151.14 318.76,172.71 302.06,188.06 C291.72,197.56 249.08,238.91 233.26,254.77 C230.92,257.11 229.00,259.68 229.00,260.47 C229.00,261.12 229.46,261.88 230.40,262.78 ZM 92.31 313.88 C82.76,316.38 72.56,315.48 73.21,312.20 C73.45,311.01 74.44,310.55 76.53,310.67 C81.45,310.96 89.32,310.99 92.40,310.74 C96.80,310.38 96.73,312.73 92.31,313.88 ZM 347.79 316.75 C346.67,318.10 343.00,318.48 343.00,317.24 C343.00,316.82 343.84,315.96 344.86,315.32 C345.88,314.68 347.00,312.77 347.33,311.08 C347.67,309.39 348.46,308.00 349.09,308.00 C350.43,308.00 349.42,314.78 347.79,316.75 ZM 94.00 217.00 C94.00,218.56 91.68,218.07 89.73,216.08 C87.67,214.01 88.30,211.42 91.02,210.70 C92.63,210.28 92.82,210.63 92.33,213.11 C91.96,214.93 92.17,216.00 92.88,216.00 C93.49,216.00 94.00,216.45 94.00,217.00 ZM 213.22 319.06 L 213.27 319.19 C214.65,322.71 216.24,327.01 217.41,330.38 C216.34,327.33 214.81,323.21 213.22,319.06 ZM 220.91 339.82 C220.99,339.93 221.05,339.99 221.10,339.99 C221.35,339.99 223.07,338.42 225.23,336.22 C223.07,338.42 221.35,340.00 221.10,339.99 C221.05,339.99 220.99,339.93 220.91,339.82 Z" fill="rgb(33,119,201)"/>
<path d="M 272.78 284.88 C269.38,284.58 268.79,284.96 265.32,289.53 C265.17,289.72 265.01,289.93 264.83,290.16 C265.00,289.94 265.16,289.74 265.29,289.56 C267.35,286.84 268.89,284.18 268.71,283.64 C268.42,282.77 265.84,281.22 257.55,277.21 C260.32,278.34 262.62,279.18 264.00,279.49 C264.83,279.68 266.24,280.12 267.15,280.48 C268.99,281.21 272.71,277.74 276.25,272.00 C283.18,260.72 312.89,227.34 313.04,230.66 C313.06,231.12 314.14,230.20 315.44,228.60 C317.34,226.28 318.76,225.64 322.65,225.35 C325.32,225.15 329.08,225.60 331.00,226.36 C340.14,229.95 352.76,231.89 363.87,231.39 C367.42,231.23 368.33,231.55 368.74,233.10 C369.01,234.14 369.63,235.00 370.12,235.00 C370.60,235.00 371.00,235.66 371.00,236.47 C371.00,237.43 371.58,237.72 372.67,237.30 C374.02,236.78 374.19,237.03 373.54,238.58 C373.10,239.63 372.18,242.75 371.49,245.50 C370.81,248.25 369.34,252.98 368.24,256.00 C367.13,259.02 365.24,264.42 364.03,268.00 C362.81,271.58 360.91,276.98 359.80,280.00 C358.70,283.02 356.99,288.42 356.01,292.00 C355.04,295.58 353.35,300.52 352.27,303.00 C351.21,305.41 350.03,309.11 349.59,311.33 C349.83,309.52 349.72,308.00 349.09,308.00 C348.46,308.00 347.67,309.39 347.33,311.08 C347.00,312.77 345.88,314.68 344.86,315.32 C343.84,315.96 343.00,316.82 343.00,317.24 C343.00,317.25 343.00,317.25 343.00,317.26 C342.54,316.98 342.06,316.61 341.56,316.17 C340.43,315.17 335.90,312.95 331.50,311.24 C324.15,308.39 318.69,305.94 296.73,295.64 C292.45,293.64 288.57,292.00 288.10,292.00 C287.63,292.00 286.68,291.33 286.00,290.50 C285.32,289.67 284.09,289.00 283.28,289.00 C282.47,289.00 280.61,288.14 279.14,287.10 C277.67,286.05 274.80,285.05 272.78,284.88 ZM 94.00 217.00 C94.00,216.45 93.49,216.00 92.88,216.00 C92.17,216.00 91.96,214.93 92.33,213.11 C92.72,211.16 92.68,210.53 91.87,210.55 C95.64,209.23 105.96,204.84 127.68,195.37 C138.22,190.77 147.35,187.00 147.95,187.00 C148.55,187.00 151.17,185.90 153.77,184.56 C156.37,183.21 162.65,180.33 167.71,178.15 C175.96,174.60 176.98,174.36 177.48,175.93 C177.78,176.89 180.55,180.33 183.62,183.59 C189.02,189.29 189.40,189.50 194.35,189.53 C198.66,189.56 199.54,189.88 199.84,191.53 C200.37,194.45 203.85,197.79 207.65,199.05 C209.49,199.66 211.00,200.60 211.00,201.15 C211.00,204.09 219.87,208.52 225.50,208.40 C229.55,208.31 234.45,206.28 239.00,202.80 C242.62,200.03 258.03,190.00 258.67,190.00 C258.97,190.00 260.92,188.65 263.00,187.00 C265.08,185.35 267.17,183.99 267.64,183.98 C268.11,183.98 275.48,178.78 284.00,172.45 C289.92,168.05 296.51,163.23 301.17,159.88 C297.33,162.65 292.45,166.22 287.83,169.64 C262.40,188.47 259.75,190.38 252.04,195.51 C241.78,202.33 227.99,212.44 220.61,218.56 C217.25,221.35 209.92,226.62 204.32,230.29 C198.72,233.96 193.86,237.42 193.50,237.99 C193.15,238.56 190.98,239.98 188.68,241.14 C185.29,242.85 184.11,243.41 184.08,244.04 C184.06,244.37 184.35,244.71 184.79,245.24 C184.82,245.29 184.86,245.33 184.90,245.38 C185.55,246.16 188.03,252.81 190.42,260.15 C192.14,265.46 194.59,272.20 196.65,277.39 C194.71,272.66 192.02,265.26 190.09,259.24 C187.38,250.82 185.19,245.64 184.08,245.04 C180.82,243.30 173.52,241.03 171.00,240.98 C169.62,240.95 167.38,240.29 166.00,239.50 C164.62,238.71 162.54,238.05 161.38,238.04 C160.21,238.02 155.71,236.82 151.38,235.38 C147.04,233.93 138.10,231.27 131.50,229.45 C114.18,224.68 103.79,221.51 101.50,220.31 C100.40,219.74 97.76,218.95 95.64,218.57 C94.77,218.41 93.96,218.19 93.21,217.92 C93.69,217.86 94.00,217.57 94.00,217.00 ZM 203.56 294.00 C203.25,293.16 202.88,292.17 202.46,291.09 C203.30,293.15 203.98,294.92 204.35,296.00 C204.74,297.14 205.62,299.49 206.73,302.41 C205.36,298.84 204.19,295.76 203.56,294.00 ZM 90.21 211.00 C88.72,211.72 88.17,213.14 88.72,214.58 C88.41,213.93 88.34,213.28 88.58,212.65 C88.92,211.77 89.64,211.04 90.21,211.00 ZM 344.77 317.98 C345.56,317.93 346.45,317.69 347.12,317.30 C346.44,317.91 345.66,318.14 344.77,317.98 ZM 230.40 262.78 C229.46,261.88 229.00,261.12 229.00,260.47 C229.00,261.04 229.77,262.12 230.88,263.19 C230.79,263.11 230.71,263.05 230.63,262.98 C230.55,262.91 230.48,262.84 230.40,262.78 ZM 327.00 141.55 C332.98,137.24 342.07,130.86 349.84,125.52 C342.07,130.86 332.98,137.24 327.00,141.55 C322.37,144.89 317.48,148.39 313.65,151.10 C317.72,148.21 322.59,144.74 327.00,141.55 Z" fill="rgb(38,150,247)"/>
<path d="M 104.00 317.00 C94.82,318.97 80.73,320.21 77.50,319.33 C76.40,319.03 74.94,318.33 74.25,317.77 C72.64,316.46 72.62,308.35 74.23,307.36 C74.90,306.94 80.70,306.28 87.12,305.87 C95.68,305.34 100.49,304.50 105.15,302.73 C108.64,301.41 113.97,299.52 117.00,298.54 C120.03,297.56 124.97,295.39 128.00,293.72 C131.02,292.05 135.98,289.34 139.00,287.70 C142.02,286.07 147.11,283.17 150.29,281.27 C154.57,278.71 156.75,277.97 158.63,278.44 C161.73,279.22 166.00,283.32 166.00,285.52 C166.00,289.00 154.49,296.68 135.00,306.19 C123.82,311.64 115.66,314.49 104.00,317.00 ZM 134.64 352.00 C139.51,351.02 141.02,350.26 141.88,348.35 C142.85,346.24 142.68,345.81 140.46,344.80 C139.07,344.17 138.00,342.94 138.08,342.07 C138.09,341.99 138.10,341.90 138.11,341.81 C138.26,340.20 138.36,339.14 137.88,338.63 C137.38,338.11 136.25,338.18 133.90,338.86 C143.39,335.57 151.89,332.07 156.24,329.33 C158.30,328.04 165.20,324.26 171.56,320.93 C180.88,316.05 183.70,315.00 186.05,315.51 C189.22,316.21 193.00,320.25 193.00,322.95 C193.00,326.36 185.05,331.72 165.85,341.22 C154.86,346.67 145.65,349.96 136.50,351.72 C135.75,351.86 134.89,352.00 133.94,352.14 C134.19,352.09 134.43,352.05 134.64,352.00 ZM 356.50 136.99 C341.77,151.12 318.66,172.81 302.06,188.06 C318.76,172.71 341.73,151.14 356.99,136.48 C363.87,129.87 374.24,119.97 380.02,114.48 C386.65,108.20 390.54,103.76 390.52,102.50 C390.49,99.57 387.01,100.30 380.58,104.56 C389.70,98.24 395.26,94.19 398.72,91.36 C403.70,87.31 407.00,85.89 407.00,87.81 C407.00,88.64 396.06,99.48 378.50,116.05 C373.00,121.23 363.10,130.66 356.50,136.99 ZM 92.31 313.88 C96.73,312.73 96.80,310.38 92.40,310.74 C89.32,310.99 81.45,310.96 76.53,310.67 C74.44,310.55 73.45,311.01 73.21,312.20 C72.56,315.48 82.76,316.38 92.31,313.88 ZM 89.16 211.67 C88.93,211.95 88.72,212.29 88.58,212.65 C88.34,213.28 88.41,213.93 88.72,214.58 C88.91,215.09 89.25,215.60 89.73,216.08 C90.62,216.99 91.60,217.59 92.39,217.82 C85.87,216.33 83.99,213.78 88.18,212.07 C88.51,211.94 88.84,211.80 89.16,211.67 ZM 111.12 223.62 C116.15,225.15 122.99,227.10 131.50,229.45 C133.51,230.00 135.73,230.63 137.98,231.29 C135.81,230.66 133.74,230.09 132.00,229.64 C124.53,227.70 117.28,225.60 111.12,223.62 ZM 92.01 210.50 C105.17,205.11 112.73,201.89 127.68,195.37 C106.23,204.73 95.89,209.13 92.01,210.50 ZM 92.73 217.90 C92.91,217.92 93.06,217.93 93.21,217.92 C93.96,218.19 94.77,218.41 95.64,218.57 C97.76,218.95 100.40,219.74 101.50,220.31 C101.54,220.33 101.58,220.35 101.63,220.38 C98.92,219.50 95.36,218.50 92.73,217.90 ZM 125.96 341.48 L 125.24 341.73 L 124.50 341.99 C121.20,343.12 116.60,344.41 111.88,345.56 C116.37,344.39 121.18,342.99 125.96,341.48 ZM 145.79 233.61 C147.99,234.28 149.94,234.90 151.38,235.38 C155.71,236.82 160.21,238.02 161.38,238.04 C162.54,238.05 164.62,238.71 166.00,239.50 C164.62,238.71 162.51,238.05 161.31,238.04 C160.10,238.02 155.15,236.68 150.31,235.06 C149.01,234.62 147.46,234.13 145.79,233.61 ZM 116.62 353.68 C110.46,353.99 105.34,354.00 104.84,353.51 C105.30,353.97 110.54,353.96 116.62,353.68 Z" fill="rgb(53,149,185)"/>
<path d="M 356.50 136.99 C363.10,130.66 373.00,121.23 378.50,116.05 C396.06,99.48 407.00,88.64 407.00,87.81 C407.00,85.89 403.70,87.31 398.72,91.36 C395.97,93.60 391.91,96.62 385.79,100.92 C392.77,95.99 396.72,92.92 400.32,89.83 C407.21,83.92 412.75,80.42 413.71,81.37 C414.60,82.27 398.99,98.72 388.50,107.93 C375.63,119.24 346.00,148.51 346.00,149.92 C346.00,150.51 345.44,151.03 344.75,151.06 C343.14,151.13 334.75,161.66 333.67,164.97 C332.31,169.16 332.12,172.00 333.20,172.00 C333.76,172.00 333.98,172.62 333.69,173.38 C333.39,174.14 333.61,175.21 334.17,175.77 C334.84,176.44 334.82,176.99 334.09,177.45 C332.47,178.44 332.80,180.20 335.12,183.00 C336.68,184.89 337.04,185.04 336.57,183.61 C336.08,182.09 336.22,181.94 337.33,182.86 C339.43,184.60 344.43,182.44 347.44,178.49 C349.75,175.45 350.37,175.18 353.75,175.70 C355.81,176.02 358.37,176.72 359.43,177.27 C365.19,180.23 381.42,182.32 382.92,180.29 C384.65,177.94 390.00,181.81 390.00,185.41 C390.00,186.28 390.41,187.00 390.91,187.00 C392.01,187.00 390.22,193.61 386.02,205.00 C384.29,209.68 381.28,218.23 379.33,224.00 C377.37,229.77 374.96,236.10 373.97,238.05 C373.57,238.82 373.16,239.81 372.78,240.85 C373.08,239.85 373.36,239.03 373.54,238.58 C374.19,237.03 374.02,236.78 372.67,237.30 C371.58,237.72 371.00,237.43 371.00,236.47 C371.00,235.66 370.60,235.00 370.12,235.00 C369.63,235.00 369.01,234.14 368.74,233.10 C368.33,231.55 367.42,231.23 363.87,231.39 C352.76,231.89 340.14,229.95 331.00,226.36 C329.08,225.60 325.32,225.15 322.65,225.35 C318.76,225.64 317.34,226.28 315.44,228.60 C314.14,230.20 313.06,231.12 313.04,230.66 C312.89,227.34 283.18,260.72 276.25,272.00 C272.71,277.74 268.99,281.21 267.15,280.48 C266.24,280.12 264.83,279.68 264.00,279.49 C262.62,279.18 260.32,278.34 257.55,277.21 C254.72,275.83 251.22,274.17 246.91,272.14 C240.24,269.01 233.20,265.06 230.88,263.19 C229.77,262.12 229.00,261.04 229.00,260.47 C229.00,259.68 230.92,257.11 233.26,254.77 C249.08,238.91 291.72,197.56 302.06,188.06 C318.66,172.81 341.77,151.12 356.50,136.99 ZM 327.00 141.55 C322.59,144.74 317.72,148.21 313.65,151.10 C310.87,153.07 308.65,154.62 307.50,155.40 C306.33,156.19 304.04,157.82 301.17,159.88 L 301.17 159.88 C296.51,163.23 289.92,168.05 284.00,172.45 C275.48,178.78 268.11,183.98 267.64,183.98 C267.17,183.99 265.08,185.35 263.00,187.00 C260.92,188.65 258.97,190.00 258.67,190.00 C258.03,190.00 242.62,200.03 239.00,202.80 C234.45,206.28 229.55,208.31 225.50,208.40 C219.87,208.52 211.00,204.09 211.00,201.15 C211.00,200.60 209.49,199.66 207.65,199.05 C203.85,197.79 200.37,194.45 199.84,191.53 C199.54,189.88 198.66,189.56 194.35,189.53 C189.40,189.50 189.02,189.29 183.62,183.59 C180.55,180.33 177.78,176.89 177.48,175.93 C177.12,174.79 176.48,174.60 172.95,175.97 C175.11,175.04 177.32,174.10 179.50,173.18 C189.95,168.78 208.54,160.64 220.81,155.09 C233.08,149.54 243.36,145.00 243.66,145.00 C243.97,145.00 243.96,145.66 243.65,146.47 C242.77,148.77 246.14,150.16 247.72,148.16 C248.82,146.77 248.83,146.97 247.82,149.32 C246.90,151.47 246.89,152.32 247.78,152.87 C248.60,153.37 248.37,154.01 247.02,154.99 C244.66,156.69 246.07,159.06 248.99,158.29 C251.18,157.72 255.85,160.95 255.29,162.64 C255.08,163.26 257.22,164.60 260.03,165.61 C262.85,166.62 267.02,169.17 269.30,171.28 L 273.44 175.10 L 277.47 173.35 C282.07,171.34 289.00,166.89 300.50,158.55 C304.90,155.36 310.30,151.92 312.50,150.91 C314.70,149.90 322.12,145.03 329.00,140.09 C333.23,137.05 339.62,132.57 345.90,128.23 C339.15,132.91 331.99,137.95 327.00,141.55 ZM 153.56 184.66 C151.03,185.96 148.53,187.00 147.95,187.00 C147.35,187.00 138.22,190.77 127.68,195.37 C138.22,190.77 147.32,187.00 147.90,187.00 C148.40,187.00 150.83,185.99 153.56,184.66 ZM 366.93 259.65 C367.42,258.28 367.87,257.01 368.24,256.00 C369.10,253.65 370.17,250.27 370.93,247.59 C370.30,249.95 369.28,253.17 368.30,255.84 C367.89,256.96 367.42,258.28 366.93,259.65 Z" fill="rgb(46,185,247)"/>
<path d="M 390.22 192.58 C391.25,188.96 391.51,187.00 390.91,187.00 C390.41,187.00 390.00,186.28 390.00,185.41 C390.00,181.81 384.65,177.94 382.92,180.29 C381.42,182.32 365.19,180.23 359.43,177.27 C358.37,176.72 355.81,176.02 353.75,175.70 C350.37,175.18 349.75,175.45 347.44,178.49 C344.43,182.44 339.43,184.60 337.33,182.86 C336.22,181.94 336.08,182.09 336.57,183.61 C337.04,185.04 336.68,184.89 335.12,183.00 C332.80,180.20 332.47,178.44 334.09,177.45 C334.82,176.99 334.84,176.44 334.17,175.77 C333.61,175.21 333.39,174.14 333.69,173.38 C333.98,172.62 333.76,172.00 333.20,172.00 C332.12,172.00 332.31,169.16 333.67,164.97 C334.75,161.66 343.14,151.13 344.75,151.06 C345.44,151.03 346.00,150.51 346.00,149.92 C346.00,148.51 375.63,119.24 388.50,107.93 C398.99,98.72 414.60,82.27 413.71,81.37 C412.75,80.42 407.21,83.92 400.32,89.83 C396.72,92.92 392.77,95.99 385.79,100.92 C384.20,102.05 382.46,103.25 380.58,104.56 C380.08,104.89 379.57,105.24 379.03,105.61 C375.44,108.12 365.52,114.88 357.00,120.63 C354.87,122.07 352.43,123.74 349.84,125.52 C348.56,126.40 347.24,127.31 345.90,128.23 C339.62,132.57 333.23,137.05 329.00,140.09 C322.12,145.03 314.70,149.90 312.50,150.91 C310.30,151.92 304.90,155.36 300.50,158.55 C289.00,166.89 282.07,171.34 277.47,173.35 L 273.44 175.10 L 269.30 171.28 C267.02,169.17 262.85,166.62 260.03,165.61 C257.22,164.60 255.08,163.26 255.29,162.64 C255.85,160.95 251.18,157.72 248.99,158.29 C246.07,159.06 244.66,156.69 247.02,154.99 C248.37,154.01 248.60,153.37 247.78,152.87 C246.89,152.32 246.90,151.47 247.82,149.32 C248.83,146.97 248.82,146.77 247.72,148.16 C246.14,150.16 242.77,148.77 243.65,146.47 C243.96,145.66 243.97,145.00 243.66,145.00 C243.36,145.00 233.08,149.54 220.81,155.09 C218.38,156.19 215.70,157.39 212.89,158.64 C213.81,158.23 214.68,157.84 215.50,157.46 C234.93,148.63 253.21,140.67 260.50,137.86 C263.25,136.80 266.40,135.54 267.50,135.06 C278.42,130.27 293.75,123.66 295.42,123.02 C296.56,122.58 300.42,120.88 304.00,119.24 C307.58,117.60 314.55,114.61 319.50,112.59 C324.45,110.58 329.40,108.53 330.50,108.04 C338.39,104.53 350.14,99.56 353.37,98.36 C355.50,97.57 360.00,95.65 363.37,94.09 C366.74,92.52 370.62,90.93 372.00,90.54 C373.38,90.16 380.80,87.13 388.50,83.82 C396.20,80.52 404.98,76.75 408.00,75.46 C415.44,72.28 429.72,67.00 430.86,67.00 C432.62,67.00 433.00,70.20 431.61,73.34 C430.85,75.08 428.66,81.22 426.77,87.00 C424.87,92.78 422.81,98.85 422.20,100.50 C420.94,103.88 418.32,111.99 417.03,116.50 C415.70,121.14 411.40,132.16 409.62,135.50 C408.73,137.15 408.00,139.18 407.99,140.00 C407.95,142.57 395.42,179.47 393.13,183.75 C392.61,184.72 391.51,187.99 390.67,191.01 C390.55,191.46 390.39,191.99 390.22,192.58 ZM 386.02 205.00 C384.29,209.67 381.28,218.22 379.33,224.00 C381.28,218.22 384.29,209.67 386.02,205.00 C386.17,204.59 386.31,204.19 386.46,203.79 C386.31,204.21 386.16,204.61 386.02,205.00 Z" fill="rgb(60,210,248)"/>
<path d="M 45.22 212.89 C40.61,215.24 38.44,215.53 37.45,213.92 C37.09,213.33 37.11,207.02 37.51,199.90 C38.09,189.40 38.54,186.79 39.86,186.11 C40.76,185.64 46.45,185.25 52.50,185.23 C58.55,185.21 70.81,184.85 79.75,184.44 L 96.00 183.69 L 96.00 186.69 C96.00,188.34 95.21,190.38 94.25,191.21 C92.64,192.62 77.01,200.00 75.65,200.00 C75.32,200.00 72.00,201.40 68.28,203.10 C64.56,204.81 58.78,207.23 55.44,208.49 C52.10,209.74 47.50,211.72 45.22,212.89 Z" fill="rgb(67,68,196)"/>
<path d="M 95.99 183.69 L 79.75 184.44 C70.81,184.85 58.55,185.21 52.50,185.23 C46.45,185.25 40.76,185.64 39.86,186.11 C38.54,186.79 38.09,189.40 37.51,199.90 C37.16,206.10 37.10,211.68 37.33,213.42 C36.25,210.53 37.61,167.86 38.81,167.12 C39.41,166.75 45.44,167.07 52.20,167.85 C58.97,168.62 68.70,169.20 73.84,169.14 C78.97,169.08 84.04,169.48 85.09,170.05 C86.37,170.73 87.62,170.74 88.87,170.07 C90.37,169.27 91.25,169.65 93.37,172.03 C95.70,174.65 96.00,175.81 96.00,182.34 C96.00,182.81 96.00,183.26 95.99,183.69 ZM 118.49 182.37 C112.81,185.07 110.84,185.50 109.67,184.33 C108.82,183.48 108.80,169.19 109.64,161.16 C110.24,155.46 110.44,155.07 112.49,155.59 C114.86,156.18 125.85,156.36 130.00,155.87 C134.09,155.38 155.96,158.27 157.78,159.53 C157.94,159.64 157.28,161.10 156.32,162.77 C155.31,164.52 152.87,166.53 150.54,167.51 C148.32,168.45 142.29,171.20 137.15,173.61 C132.01,176.03 127.19,178.00 126.46,178.00 C125.72,178.00 124.87,178.39 124.58,178.87 C124.28,179.35 121.54,180.93 118.49,182.37 ZM 95.30 189.71 C95.04,190.36 94.70,190.83 94.25,191.21 C94.64,190.87 95.00,190.34 95.30,189.71 Z" fill="rgb(112,67,200)"/>
<path d="M 95.96 179.19 C95.82,175.32 95.27,174.16 93.37,172.03 C91.25,169.65 90.37,169.27 88.87,170.07 C87.62,170.74 86.37,170.73 85.09,170.05 C84.04,169.48 78.97,169.08 73.84,169.14 C68.70,169.20 58.97,168.62 52.20,167.85 C45.44,167.07 39.41,166.75 38.81,167.12 C38.13,167.54 37.39,181.49 37.09,193.99 C37.17,174.33 37.72,146.95 38.28,146.38 C39.47,145.19 93.27,145.98 94.75,147.21 C95.68,147.98 96.00,153.61 96.00,168.97 C96.00,173.14 95.99,176.49 95.96,179.19 ZM 129.14 177.12 C131.18,176.32 134.10,175.04 137.15,173.61 C142.29,171.20 148.32,168.45 150.54,167.51 C152.87,166.53 155.31,164.52 156.32,162.77 C157.28,161.10 157.94,159.64 157.78,159.53 C155.96,158.27 134.09,155.38 130.00,155.87 C125.85,156.36 114.86,156.18 112.49,155.59 C110.44,155.07 110.24,155.46 109.64,161.16 C109.58,161.75 109.52,162.37 109.47,163.02 C109.50,161.59 109.54,160.13 109.59,158.64 L 110.29 134.28 L 112.90 135.07 C120.64,137.41 127.18,138.07 142.53,138.05 C151.86,138.04 161.07,138.13 163.00,138.26 C168.94,138.67 169.85,139.80 171.04,148.31 C172.32,157.51 171.84,159.57 168.21,160.48 C165.90,161.05 161.98,162.63 149.50,167.97 C148.40,168.45 143.07,170.89 137.65,173.42 C134.39,174.93 131.27,176.28 129.14,177.12 ZM 201.82 145.67 C187.84,152.14 186.83,152.49 185.67,151.33 C184.84,150.50 184.82,142.17 185.63,135.42 L 186.24 130.34 L 189.87 131.13 C191.87,131.57 198.68,132.46 205.00,133.11 C211.32,133.76 217.18,134.41 218.00,134.57 C218.82,134.72 220.06,134.88 220.75,134.92 C223.01,135.06 222.06,136.49 218.75,137.93 C216.96,138.71 209.34,142.20 201.82,145.67 ZM 109.42 183.58 C109.45,183.76 109.48,183.91 109.52,184.03 C109.51,184.02 109.51,184.01 109.50,184.00 C109.47,183.95 109.44,183.81 109.42,183.58 Z" fill="rgb(149,73,194)"/>
<path d="M 171.21 149.62 C171.16,149.20 171.10,148.76 171.04,148.31 C169.85,139.80 168.94,138.67 163.00,138.26 C161.07,138.13 151.86,138.04 142.53,138.05 C127.18,138.07 120.64,137.41 112.90,135.07 L 110.29 134.28 L 109.59 158.64 C109.56,159.69 109.53,160.72 109.50,161.74 C109.62,139.48 110.12,108.52 110.58,106.25 L 111.04 104.00 L 139.86 104.00 C166.24,104.00 168.83,104.15 170.30,105.78 C171.72,107.35 171.86,110.63 171.49,133.03 C171.39,139.28 171.29,145.08 171.21,149.62 ZM 201.82 145.67 C209.34,142.20 216.96,138.71 218.75,137.93 C222.06,136.49 223.01,135.06 220.75,134.92 C220.06,134.88 218.82,134.72 218.00,134.57 C217.18,134.41 211.32,133.76 205.00,133.11 C198.68,132.46 191.87,131.57 189.87,131.13 L 186.24 130.34 L 185.63 135.42 C185.33,137.93 185.14,140.67 185.07,143.15 C184.92,135.41 185.11,124.25 185.64,119.15 L 186.28 113.00 L 189.89 113.02 C191.88,113.04 195.30,113.49 197.50,114.03 C199.70,114.57 207.80,115.27 215.50,115.57 C238.35,116.49 239.36,116.59 242.70,118.33 C244.46,119.25 247.05,120.00 248.45,120.00 C251.30,120.00 251.83,122.03 249.57,124.29 C248.78,125.08 241.92,128.32 234.32,131.50 C226.72,134.68 219.15,137.85 217.50,138.55 C215.85,139.25 208.56,142.56 201.31,145.91 C200.47,146.30 199.67,146.67 198.93,147.01 C195.47,148.60 192.99,149.72 191.18,150.48 C187.09,152.20 186.42,152.08 185.67,151.33 C186.41,152.08 187.09,152.20 191.18,150.48 C192.99,149.72 195.47,148.60 198.93,147.01 C199.82,146.60 200.79,146.15 201.82,145.67 ZM 171.04 159.14 C171.02,159.49 169.76,160.09 168.25,160.47 C169.60,160.13 170.51,159.62 171.05,158.63 C171.04,158.93 171.04,159.10 171.04,159.14 ZM 109.72 184.39 C110.32,184.95 111.14,185.10 112.55,184.76 C111.12,185.11 110.30,184.96 109.73,184.39 C109.73,184.39 109.72,184.39 109.72,184.39 Z" fill="rgb(194,80,174)"/>
<path d="M 250.75 120.88 C250.39,120.33 249.61,120.00 248.45,120.00 C247.05,120.00 244.46,119.25 242.70,118.33 C239.36,116.59 238.35,116.49 215.50,115.57 C207.80,115.27 199.70,114.57 197.50,114.03 C195.30,113.49 191.88,113.04 189.89,113.02 L 186.28 113.00 L 185.64 119.15 C185.56,119.97 185.48,120.95 185.41,122.05 C185.70,95.42 186.56,60.13 187.26,59.25 C188.01,58.30 195.49,58.00 218.50,58.00 C245.43,58.00 248.91,58.18 250.13,59.65 C251.21,60.96 251.47,65.92 251.37,82.90 C251.22,107.47 251.15,116.89 250.75,120.88 ZM 249.78 124.07 C249.71,124.15 249.64,124.22 249.57,124.29 C249.64,124.22 249.71,124.15 249.78,124.07 Z" fill="rgb(238,87,139)"/>
<path d="M 270.53 116.65 C268.12,118.30 267.33,118.34 266.40,116.84 C265.47,115.34 265.94,68.33 266.96,60.50 C267.39,57.20 267.80,55.49 267.87,56.70 C267.98,58.63 268.34,58.79 270.75,58.03 C273.41,57.19 280.73,56.24 290.00,55.54 C292.48,55.35 300.27,54.50 307.32,53.66 C314.37,52.81 320.79,52.37 321.58,52.67 C322.38,52.97 323.67,52.69 324.47,52.03 C325.62,51.07 326.40,51.30 328.35,53.17 C330.66,55.36 330.86,56.46 331.82,72.00 L 332.84 88.50 L 330.14 91.04 C328.65,92.44 321.37,95.99 313.97,98.94 C306.56,101.89 298.48,105.30 296.00,106.53 C293.52,107.76 287.23,110.24 282.00,112.03 C276.77,113.83 271.61,115.91 270.53,116.65 Z" fill="rgb(251,166,57)"/>
<path d="M 332.18 77.71 L 331.82 72.00 C330.86,56.46 330.66,55.36 328.35,53.17 C326.40,51.30 325.62,51.07 324.47,52.03 C323.67,52.69 322.38,52.97 321.58,52.67 C320.79,52.37 314.37,52.81 307.32,53.66 C300.27,54.50 292.48,55.35 290.00,55.54 C280.73,56.24 273.41,57.19 270.75,58.03 C268.34,58.79 267.98,58.63 267.87,56.70 C267.80,55.49 267.39,57.20 266.96,60.50 C266.48,64.19 266.12,76.56 265.97,88.77 C265.94,81.27 265.93,72.72 265.95,63.71 C266.05,21.76 266.34,11.24 267.41,10.17 C269.24,8.33 328.87,8.44 330.70,10.29 C331.59,11.18 331.95,21.63 332.06,50.46 ZM 329.77 91.52 C328.45,92.66 321.56,95.90 314.34,98.79 C321.62,95.88 328.68,92.42 330.14,91.04 L 332.22 89.08 L 332.22 89.41 ZM 266.47 116.95 C267.01,117.79 267.53,118.09 268.37,117.84 C267.51,118.10 267.00,117.80 266.47,116.96 C266.47,116.95 266.47,116.95 266.47,116.95 Z" fill="rgb(252,203,60)"/>
<path d="M 0.00 180.00 L 0.00 0.00 L 219.00 0.00 L 438.00 0.00 L 438.00 180.00 L 438.00 360.00 L 219.00 360.00 L 0.00 360.00 L 0.00 180.00 ZM 136.50 351.72 C145.65,349.96 154.86,346.67 165.85,341.22 C185.05,331.72 193.00,326.36 193.00,322.95 C193.00,320.25 189.22,316.21 186.05,315.51 C183.70,315.00 180.88,316.05 171.56,320.93 C165.20,324.26 158.30,328.04 156.24,329.33 C144.81,336.51 104.81,348.98 93.17,349.00 C91.75,349.00 91.00,349.49 91.25,350.25 C91.49,350.96 94.36,351.80 97.95,352.20 C101.41,352.59 104.51,353.18 104.84,353.51 C105.90,354.57 128.21,353.30 136.50,351.72 ZM 227.12 334.25 C233.91,327.04 260.27,296.18 265.32,289.53 C268.79,284.96 269.38,284.58 272.78,284.88 C274.80,285.05 277.67,286.05 279.14,287.10 C280.61,288.14 282.47,289.00 283.28,289.00 C284.09,289.00 285.32,289.67 286.00,290.50 C286.68,291.33 287.63,292.00 288.10,292.00 C288.57,292.00 292.45,293.64 296.73,295.64 C318.69,305.94 324.15,308.39 331.50,311.24 C335.90,312.95 340.43,315.17 341.56,316.17 C345.60,319.75 348.33,318.15 349.56,311.50 C349.97,309.30 351.19,305.48 352.27,303.00 C353.35,300.52 355.04,295.58 356.01,292.00 C356.99,288.42 358.70,283.02 359.80,280.00 C360.91,276.98 362.73,271.80 363.84,268.50 C364.95,265.20 366.96,259.50 368.30,255.84 C369.65,252.18 371.06,247.47 371.46,245.39 C371.85,243.30 372.98,240.00 373.97,238.05 C374.96,236.10 377.37,229.77 379.33,224.00 C381.28,218.23 384.29,209.68 386.02,205.00 C387.74,200.32 389.84,194.03 390.67,191.01 C391.51,187.99 392.61,184.72 393.13,183.75 C395.42,179.47 407.95,142.57 407.99,140.00 C408.00,139.18 408.73,137.15 409.62,135.50 C411.40,132.16 415.70,121.14 417.03,116.50 C418.32,111.99 420.94,103.88 422.20,100.50 C422.81,98.85 424.87,92.78 426.77,87.00 C428.66,81.22 430.85,75.08 431.61,73.34 C433.00,70.20 432.62,67.00 430.86,67.00 C429.72,67.00 415.44,72.28 408.00,75.46 C404.98,76.75 396.20,80.52 388.50,83.82 C380.80,87.13 373.38,90.16 372.00,90.54 C370.62,90.93 366.74,92.52 363.37,94.09 C360.00,95.65 355.50,97.57 353.37,98.36 C350.14,99.56 338.39,104.53 330.50,108.04 C329.40,108.53 324.45,110.58 319.50,112.59 C314.55,114.61 307.58,117.60 304.00,119.24 C300.42,120.88 296.56,122.58 295.42,123.02 C293.75,123.66 278.42,130.27 267.50,135.06 C266.40,135.54 263.25,136.80 260.50,137.86 C253.21,140.67 234.93,148.63 215.50,157.46 C206.15,161.71 189.95,168.79 179.50,173.18 C169.05,177.58 157.90,182.49 154.72,184.09 C151.54,185.69 148.47,187.00 147.90,187.00 C147.32,187.00 138.22,190.77 127.68,195.37 C111.34,202.50 103.82,205.68 88.18,212.07 C83.97,213.79 85.89,216.36 92.51,217.85 C95.80,218.58 100.75,220.01 103.50,221.02 C110.75,223.67 121.14,226.82 132.00,229.64 C137.23,231.00 145.46,233.44 150.31,235.06 C155.15,236.68 160.10,238.02 161.31,238.04 C162.51,238.05 164.62,238.71 166.00,239.50 C167.38,240.29 169.62,240.95 171.00,240.98 C173.52,241.03 180.82,243.30 184.08,245.04 C185.19,245.64 187.38,250.82 190.09,259.24 C192.43,266.53 195.89,275.88 197.77,280.00 C199.66,284.12 202.27,290.42 203.56,294.00 C204.85,297.58 208.33,306.62 211.29,314.10 C214.25,321.58 217.53,330.46 218.58,333.84 C219.64,337.22 220.77,339.99 221.10,339.99 C221.43,340.00 224.14,337.41 227.12,334.25 ZM 104.00 317.00 C115.66,314.49 123.82,311.64 135.00,306.19 C154.49,296.68 166.00,289.00 166.00,285.52 C166.00,283.32 161.73,279.22 158.63,278.44 C156.75,277.97 154.57,278.71 150.29,281.27 C147.11,283.17 142.02,286.07 139.00,287.70 C135.98,289.34 131.02,292.05 128.00,293.72 C124.97,295.39 120.03,297.56 117.00,298.54 C113.97,299.52 108.64,301.41 105.15,302.73 C100.49,304.50 95.68,305.34 87.12,305.87 C80.70,306.28 74.90,306.94 74.23,307.36 C72.62,308.35 72.64,316.46 74.25,317.77 C74.94,318.33 76.40,319.03 77.50,319.33 C80.73,320.21 94.82,318.97 104.00,317.00 ZM 45.22 212.89 C47.50,211.72 52.10,209.74 55.44,208.49 C58.78,207.23 64.56,204.81 68.28,203.10 C72.00,201.40 75.32,200.00 75.65,200.00 C77.01,200.00 92.64,192.62 94.25,191.21 C95.81,189.85 96.00,187.46 96.00,168.97 C96.00,153.61 95.68,147.98 94.75,147.21 C93.27,145.98 39.47,145.19 38.28,146.38 C37.41,147.25 36.59,211.49 37.42,213.64 C38.15,215.55 40.43,215.33 45.22,212.89 ZM 118.49 182.37 C121.54,180.93 124.28,179.35 124.58,178.87 C124.87,178.39 125.72,178.00 126.46,178.00 C127.19,178.00 132.23,175.94 137.65,173.42 C143.07,170.89 148.40,168.45 149.50,167.97 C161.99,162.62 165.91,161.05 168.25,160.47 C169.76,160.09 171.02,159.49 171.04,159.14 C171.06,158.79 171.26,147.04 171.49,133.03 C171.86,110.63 171.72,107.35 170.30,105.78 C168.83,104.15 166.24,104.00 139.86,104.00 L 111.04 104.00 L 110.58 106.25 C109.86,109.80 109.05,183.72 109.73,184.39 C110.83,185.50 112.89,185.03 118.49,182.37 ZM 201.31 145.91 C208.56,142.56 215.85,139.25 217.50,138.55 C219.15,137.85 226.72,134.68 234.32,131.50 C241.92,128.32 248.78,125.08 249.57,124.29 C251.10,122.76 251.12,122.19 251.37,82.90 C251.47,65.92 251.21,60.96 250.13,59.65 C248.91,58.18 245.43,58.00 218.50,58.00 C195.49,58.00 188.01,58.30 187.26,59.25 C186.15,60.66 184.60,150.27 185.67,151.34 C186.82,152.49 187.81,152.14 201.31,145.91 ZM 270.53 116.65 C271.61,115.91 276.77,113.83 282.00,112.03 C287.23,110.24 293.52,107.76 296.00,106.53 C298.48,105.30 306.53,101.90 313.91,98.96 C321.28,96.03 328.42,92.68 329.77,91.52 L 332.22 89.41 L 332.06 50.46 C331.95,21.63 331.59,11.18 330.70,10.29 C328.87,8.44 269.24,8.33 267.41,10.17 C266.34,11.24 266.05,21.76 265.95,63.71 C265.89,92.42 266.12,116.38 266.47,116.96 C267.33,118.34 268.16,118.27 270.53,116.65 Z" fill="rgb(254,254,254)"/>
</g>
</svg>